<svg width="1714" height="1024" viewBox="0 0 1714 1024" fill="none" xmlns="http://www.w3.org/2000/svg">
<g clip-path="url(#clip0_3_1685)">
<rect width="1714" height="1024" fill="white"/>
<path d="M1103.02 169.273H1116.2V216.787C1116.2 221.995 1114.97 226.576 1112.5 230.53C1110.07 234.483 1106.63 237.573 1102.21 239.798C1097.78 242 1092.61 243.101 1086.69 243.101C1080.74 243.101 1075.56 242 1071.13 239.798C1066.71 237.573 1063.27 234.483 1060.83 230.53C1058.4 226.576 1057.18 221.995 1057.18 216.787V169.273H1070.35V215.686C1070.35 218.716 1071.01 221.415 1072.34 223.783C1073.69 226.15 1075.58 228.009 1078.02 229.358C1080.46 230.684 1083.35 231.347 1086.69 231.347C1090.03 231.347 1092.91 230.684 1095.35 229.358C1097.81 228.009 1099.71 226.15 1101.03 223.783C1102.36 221.415 1103.02 218.716 1103.02 215.686V169.273ZM1129.24 242V233.832L1157.36 198.57V198.108H1130.16V187.455H1173.1V196.226L1146.32 230.885V231.347H1174.02V242H1129.24ZM1186.67 242V169.273H1199.52V196.474H1200.06C1200.72 195.149 1201.66 193.74 1202.86 192.249C1204.07 190.733 1205.7 189.443 1207.76 188.378C1209.82 187.289 1212.45 186.744 1215.65 186.744C1219.86 186.744 1223.66 187.821 1227.05 189.976C1230.45 192.107 1233.15 195.267 1235.14 199.457C1237.15 203.624 1238.16 208.738 1238.16 214.798C1238.16 220.788 1237.18 225.878 1235.21 230.068C1233.25 234.259 1230.57 237.455 1227.19 239.656C1223.8 241.858 1219.97 242.959 1215.68 242.959C1212.56 242.959 1209.96 242.438 1207.91 241.396C1205.85 240.355 1204.19 239.1 1202.93 237.632C1201.7 236.141 1200.74 234.732 1200.06 233.406H1199.31V242H1186.67ZM1199.28 214.727C1199.28 218.255 1199.77 221.344 1200.77 223.996C1201.79 226.647 1203.24 228.719 1205.14 230.21C1207.05 231.678 1209.37 232.412 1212.1 232.412C1214.94 232.412 1217.32 231.654 1219.23 230.139C1221.15 228.6 1222.6 226.505 1223.57 223.854C1224.56 221.179 1225.06 218.136 1225.06 214.727C1225.06 211.342 1224.57 208.335 1223.6 205.707C1222.63 203.08 1221.19 201.02 1219.27 199.528C1217.35 198.037 1214.96 197.291 1212.1 197.291C1209.35 197.291 1207.02 198.013 1205.1 199.457C1203.18 200.902 1201.73 202.926 1200.73 205.53C1199.76 208.134 1199.28 211.2 1199.28 214.727ZM1273.24 243.065C1267.77 243.065 1263.05 241.929 1259.07 239.656C1255.11 237.36 1252.07 234.116 1249.94 229.926C1247.81 225.712 1246.75 220.752 1246.75 215.047C1246.75 209.436 1247.81 204.512 1249.94 200.274C1252.1 196.013 1255.1 192.698 1258.96 190.331C1262.82 187.94 1267.35 186.744 1272.56 186.744C1275.92 186.744 1279.1 187.289 1282.08 188.378C1285.09 189.443 1287.74 191.1 1290.03 193.349C1292.35 195.598 1294.18 198.463 1295.5 201.943C1296.83 205.4 1297.49 209.519 1297.49 214.301V218.243H1252.78V209.578H1285.17C1285.15 207.116 1284.61 204.926 1283.57 203.009C1282.53 201.067 1281.07 199.54 1279.2 198.428C1277.36 197.315 1275.2 196.759 1272.74 196.759C1270.11 196.759 1267.8 197.398 1265.82 198.676C1263.83 199.931 1262.28 201.588 1261.16 203.648C1260.07 205.684 1259.52 207.921 1259.49 210.359V217.923C1259.49 221.096 1260.07 223.818 1261.23 226.091C1262.39 228.34 1264.02 230.068 1266.1 231.276C1268.18 232.459 1270.62 233.051 1273.41 233.051C1275.29 233.051 1276.98 232.791 1278.49 232.27C1280.01 231.725 1281.32 230.932 1282.43 229.891C1283.55 228.849 1284.39 227.559 1284.96 226.02L1296.96 227.369C1296.2 230.542 1294.76 233.312 1292.63 235.679C1290.52 238.023 1287.82 239.846 1284.53 241.148C1281.24 242.426 1277.47 243.065 1273.24 243.065ZM1320.09 224.884L1320.05 209.365H1322.11L1341.71 187.455H1356.73L1332.62 214.301H1329.96L1320.09 224.884ZM1308.37 242V169.273H1321.22V242H1308.37ZM1342.6 242L1324.84 217.178L1333.51 208.122L1357.98 242H1342.6ZM1365.3 242V187.455H1378.16V242H1365.3ZM1371.76 179.713C1369.73 179.713 1367.98 179.038 1366.51 177.689C1365.04 176.316 1364.31 174.67 1364.31 172.753C1364.31 170.812 1365.04 169.166 1366.51 167.817C1367.98 166.444 1369.73 165.757 1371.76 165.757C1373.82 165.757 1375.58 166.444 1377.02 167.817C1378.49 169.166 1379.22 170.812 1379.22 172.753C1379.22 174.67 1378.49 176.316 1377.02 177.689C1375.58 179.038 1373.82 179.713 1371.76 179.713ZM1434.49 201.872L1422.77 203.151C1422.44 201.967 1421.86 200.854 1421.03 199.812C1420.22 198.771 1419.13 197.93 1417.76 197.291C1416.39 196.652 1414.71 196.332 1412.72 196.332C1410.04 196.332 1407.79 196.912 1405.97 198.072C1404.17 199.232 1403.28 200.736 1403.31 202.582C1403.28 204.169 1403.86 205.459 1405.05 206.453C1406.25 207.447 1408.24 208.264 1411.01 208.903L1420.32 210.892C1425.48 212.005 1429.31 213.768 1431.82 216.183C1434.36 218.598 1435.63 221.759 1435.66 225.665C1435.63 229.098 1434.63 232.128 1432.64 234.756C1430.67 237.36 1427.94 239.396 1424.44 240.864C1420.93 242.331 1416.91 243.065 1412.36 243.065C1405.69 243.065 1400.31 241.669 1396.24 238.875C1392.17 236.058 1389.74 232.14 1388.96 227.121L1401.5 225.913C1402.06 228.375 1403.27 230.234 1405.12 231.489C1406.96 232.743 1409.37 233.371 1412.33 233.371C1415.38 233.371 1417.83 232.743 1419.68 231.489C1421.55 230.234 1422.48 228.683 1422.48 226.837C1422.48 225.274 1421.88 223.984 1420.67 222.966C1419.49 221.948 1417.64 221.167 1415.13 220.622L1405.83 218.669C1400.6 217.58 1396.73 215.745 1394.22 213.165C1391.71 210.561 1390.46 207.27 1390.49 203.293C1390.46 199.931 1391.37 197.019 1393.22 194.557C1395.09 192.071 1397.68 190.153 1401 188.804C1404.34 187.431 1408.18 186.744 1412.54 186.744C1418.93 186.744 1423.96 188.106 1427.63 190.828C1431.32 193.551 1433.61 197.232 1434.49 201.872ZM1473.49 187.455V197.398H1442.14V187.455H1473.49ZM1449.88 174.386H1462.73V225.594C1462.73 227.322 1463 228.648 1463.52 229.571C1464.06 230.471 1464.77 231.086 1465.65 231.418C1466.52 231.749 1467.49 231.915 1468.56 231.915C1469.36 231.915 1470.1 231.856 1470.76 231.737C1471.45 231.619 1471.97 231.512 1472.32 231.418L1474.49 241.467C1473.8 241.704 1472.82 241.964 1471.54 242.249C1470.29 242.533 1468.75 242.698 1466.93 242.746C1463.71 242.84 1460.81 242.355 1458.22 241.29C1455.64 240.201 1453.6 238.52 1452.08 236.247C1450.59 233.974 1449.86 231.134 1449.88 227.724V174.386ZM1499.94 243.101C1496.49 243.101 1493.37 242.485 1490.6 241.254C1487.86 240 1485.68 238.153 1484.07 235.714C1482.48 233.276 1481.69 230.269 1481.69 226.695C1481.69 223.617 1482.26 221.072 1483.39 219.06C1484.53 217.047 1486.08 215.438 1488.05 214.23C1490.01 213.023 1492.22 212.111 1494.69 211.496C1497.17 210.857 1499.74 210.395 1502.39 210.111C1505.59 209.779 1508.18 209.483 1510.17 209.223C1512.16 208.939 1513.6 208.513 1514.5 207.945C1515.42 207.353 1515.89 206.441 1515.89 205.21V204.997C1515.89 202.322 1515.09 200.25 1513.51 198.783C1511.92 197.315 1509.64 196.581 1506.65 196.581C1503.5 196.581 1501.01 197.268 1499.16 198.641C1497.34 200.014 1496.11 201.635 1495.47 203.506L1483.46 201.801C1484.41 198.487 1485.97 195.717 1488.15 193.491C1490.33 191.242 1492.99 189.562 1496.14 188.449C1499.29 187.312 1502.77 186.744 1506.58 186.744C1509.21 186.744 1511.83 187.052 1514.43 187.668C1517.03 188.283 1519.41 189.301 1521.57 190.722C1523.72 192.118 1525.45 194.024 1526.75 196.439C1528.08 198.854 1528.74 201.872 1528.74 205.494V242H1516.38V234.507H1515.96C1515.18 236.022 1514.08 237.443 1512.65 238.768C1511.26 240.071 1509.49 241.124 1507.36 241.929C1505.26 242.71 1502.78 243.101 1499.94 243.101ZM1503.28 233.655C1505.86 233.655 1508.1 233.146 1509.99 232.128C1511.89 231.086 1513.34 229.713 1514.36 228.009C1515.4 226.304 1515.92 224.446 1515.92 222.433V216.006C1515.52 216.337 1514.83 216.645 1513.86 216.929C1512.92 217.213 1511.85 217.462 1510.67 217.675C1509.48 217.888 1508.31 218.077 1507.15 218.243C1505.99 218.409 1504.98 218.551 1504.13 218.669C1502.21 218.929 1500.5 219.356 1498.98 219.947C1497.47 220.539 1496.27 221.368 1495.4 222.433C1494.52 223.475 1494.08 224.824 1494.08 226.482C1494.08 228.849 1494.95 230.636 1496.67 231.844C1498.4 233.051 1500.6 233.655 1503.28 233.655ZM1554.52 210.04V242H1541.67V187.455H1553.95V196.723H1554.59C1555.85 193.669 1557.85 191.242 1560.6 189.443C1563.37 187.644 1566.79 186.744 1570.86 186.744C1574.62 186.744 1577.9 187.549 1580.69 189.159C1583.51 190.769 1585.69 193.101 1587.23 196.155C1588.79 199.209 1589.56 202.914 1589.54 207.27V242H1576.68V209.259C1576.68 205.613 1575.73 202.76 1573.84 200.7C1571.97 198.641 1569.38 197.611 1566.06 197.611C1563.81 197.611 1561.81 198.108 1560.06 199.102C1558.33 200.073 1556.97 201.482 1555.98 203.328C1555.01 205.175 1554.52 207.412 1554.52 210.04Z" fill="#A1A5BE"/>
<g clip-path="url(#clip1_3_1685)">
<path fill-rule="evenodd" clip-rule="evenodd" d="M269 184.732V530.354L340.738 537.251C344.65 525.755 345.053 530.986 348.389 525.353C347.181 524.721 342.061 524.433 340.335 519.605C338.61 514.777 340.853 511.156 338.897 504.833C337.344 499.89 335.273 499.085 335.273 493.337C335.273 489.429 336.596 482.761 337.056 478.508C341.026 476.266 348.102 474.829 350.518 469.656C354.66 460.689 350.518 461.666 359.377 456.033C364.766 452.806 371.137 451.622 377.326 452.699C383.375 454.289 389.777 453.865 395.563 451.492C399.36 443.215 403.214 444.48 402.697 434.823C402.697 429.478 401.373 432.352 399.245 427.064C404.998 424.075 399.245 428.673 406.321 423.213C408.68 421.373 407.759 418.787 414.317 426.546C434.05 423.27 428.182 426.546 434.337 440.284H442.967C439.457 431.547 439.802 442.641 430.77 424.707C428.297 419.821 429.16 419.362 425.018 416.545C419.955 412.981 420.415 415.453 417.309 409.82C425.363 397.807 434.97 407.349 445.498 406.486L448.95 396.715C448.95 395.795 447.856 397.29 449.295 394.013C456.141 396.542 464.655 416.143 475.873 419.649C483.927 422.178 489.795 416.085 493.132 426.317C497.446 441.089 497.274 428.616 505.845 440.859C515.369 442.341 525.058 442.438 534.61 441.146C535.473 441.146 536.336 441.549 537.831 442.813C539.327 444.078 543.066 447.986 544.792 449.826C543.527 453.677 543.009 451.205 541.283 454.826L547.036 458.965V467.357C543.124 469.023 544.85 467.357 541.686 469.828C544.85 473.564 546.921 473.852 549.912 477.3C556.758 474.656 561.821 467.472 570.508 466.494C582.013 465.115 582.761 474.541 585.753 482.991C588.744 491.44 588.744 486.44 594.727 490.233C602.781 495.349 589.895 493.51 609.397 508.167C612.34 511.091 616.198 512.917 620.327 513.34C621.363 521.847 620.788 520.007 628.842 524.836C641.555 532.538 626.425 529.089 639.024 540.93C646.414 543.629 649.833 544.313 659.405 550.465C663.41 555.026 675.877 563.74 680.6 567.555L708.979 552.713L664.394 475.116C669.572 469.368 679.007 465.46 684.472 460.057C679.467 444.48 678.719 451.148 680.732 431.317C682.113 416.545 681.193 413.786 687.118 401.371C694.769 385.162 703.629 368.55 710.13 352.743C704.377 350.559 697.818 350.214 692.296 348.203C687.923 346.593 689.016 347.168 687.061 342.455C685.967 339.638 684.989 337.282 683.839 334.523C680.656 326.986 675.911 320.208 669.917 314.635C667.846 312.278 667.041 310.611 664.912 308.312L623.319 260.202C619.867 252.098 623.837 250.661 615.84 245.258L578.792 214.219C574.65 210.483 570.853 207.264 566.596 203.873C543.239 185.48 555.723 190.078 524.887 177.03C496.123 164.902 478.864 151.854 455.853 133.289C450.215 128.518 450.043 126.334 441.586 129.495C414.202 139.496 366.051 153.981 338.034 162.488C315.023 169.903 292.011 178.295 269 184.732Z" fill="#1B75BC"/>
<path fill-rule="evenodd" clip-rule="evenodd" d="M691.548 345.156L714.559 350.444C712.316 359.813 695.805 390.22 690.627 400.968C684.414 414.073 684.874 415.568 683.781 431.547C681.71 454.539 683.781 444.71 688.154 461.321C681.985 466.397 675.338 470.863 668.306 474.656C675.552 489.734 683.737 504.343 692.813 518.398L721.06 516.328C724.527 523.664 729.694 530.067 736.132 535.009C751.608 544.436 742.863 540.067 749.422 553.977L757.763 555.874C760.064 556.621 762.883 557.886 765.012 558.69C783.766 566.163 780.832 563.289 790.842 572.773C803.441 584.671 796.192 583.177 807.353 583.004L808.446 581.28L809.366 579.555C813.336 570.416 809.712 567.485 819.894 562.886C825.647 568.979 822.425 568.06 823.806 575.819L846.472 579.383L849.579 572.773L861.085 571.336C864.249 570.474 862.523 570.991 864.249 570.071L866.09 562.714C876.1 561.392 871.267 563.174 877.595 583.521C905.036 587.028 889.561 588.005 913.838 583.521L913.321 601.34C906.129 603.984 906.417 599.328 903.138 607.088C901.474 611.041 900.053 615.091 898.881 619.216C887.375 618.239 887.375 615.25 877.825 619.216C882.025 628.413 882.083 621.975 880.702 636L872.878 638.069C871.785 645.886 875.352 645.599 859.934 652.151C859.934 660.773 862.695 659.796 867.125 665.487C871.555 671.177 870.98 670.085 879.666 671.867C888.353 673.649 891.862 688.306 893.071 696.065L901.009 692.674C897.903 680.603 898.306 689.685 899.686 677.327C901.067 664.969 894.681 671.924 893.531 662.613C897.097 656.865 907.395 654.91 915.277 654.968L917.463 634.85C947.55 633.241 928.451 657.21 964.866 638.701C962.335 633.298 960.609 639.046 963.888 628.987C972.345 603.007 961.817 615.02 966.017 603.639C967.282 600.305 969.756 597.029 971.137 593.925C981.722 593.235 975.969 596.052 982.643 596.569C986.209 596.569 988.798 594.615 992.595 593.523L998.751 599.845L1011.81 580.13C1007.55 567.37 1007.09 572.026 998.233 566.393L996.737 549.149L1004.96 546.39C1003.3 535.871 999.211 525.065 997.025 514.317C994.896 502.821 994.033 490.635 992.25 478.737L955.834 473.564V436.318H956.64L960.437 435.283L961.645 380.908L945.997 387.173C937.885 375.677 930.349 348.95 919.994 342.052C914.241 338.144 902.333 332.281 899.111 327.97C882.255 305.668 896.982 298.54 865.284 315.382C854.124 321.13 856.367 320.67 841.41 320.268C822.886 319.693 805.8 317.738 787.505 315.784C764.782 313.313 758.166 316.359 736.88 320.842C719.579 324.454 702.014 326.665 684.357 327.452L691.548 345.156Z" fill="#1B75BC"/>
<path fill-rule="evenodd" clip-rule="evenodd" d="M722.291 524.02C722.291 523.618 720.795 521.893 720.565 521.664C719.942 520.716 719.229 519.831 718.437 519.02L694.275 521.261L712.109 554.139C699.744 560.719 694.274 561.403 682.651 570.29C692.223 584.645 705.32 593.627 696.173 602.652C699.337 606.503 701.351 606.733 703.94 609.606C704.292 612.649 705.067 615.628 706.241 618.458C707.565 620.86 708.145 623.601 707.909 626.333C708.829 644.381 707.334 649.727 718.264 656.509C742.798 671.981 766.353 688.95 788.794 707.321C791.671 709.792 792.131 709.792 794.547 711.689C800.3 716.632 792.534 714.218 821.01 735.198C822.955 737.208 825.319 738.765 827.934 739.758C830.549 740.752 833.351 741.157 836.14 740.946C853.399 740.544 841.318 729.45 878.309 724.45L874.742 716.517C879.678 710.003 885.061 703.838 890.85 698.067C882.106 662.257 879.344 683.812 865.595 668.293C863.812 666.338 861.108 663.464 859.094 660.993C857.646 659.635 856.778 657.772 856.671 655.791C856.564 653.81 857.226 651.864 858.519 650.359C860.878 647.658 864.79 647.83 867.436 645.416C871.003 642.197 868.702 641.852 870.37 636.104L877.964 633.518L878.481 625.126L872.729 619.378C888.549 611.791 878.827 615.527 896.603 616.446L902.759 600.812L910.813 599.203V588.167C902.759 588.512 903.104 590.581 893.554 589.144C887.283 588.224 881.3 587.592 875.145 586.385C873.994 582.534 873.189 579.315 872.326 575.521C869.68 563.623 870.255 567.187 867.954 565.52L865.998 574.199L851.155 575.981L848.567 583.224C808.297 578.165 823.772 579.372 819.342 567.187C811.863 569.371 814.912 577.418 809.677 586.27H797.136C795.238 584.028 795.64 582.994 793.799 580.522C784.019 566.555 756.808 557.53 747.776 558.967C741.333 545.69 747.776 546.207 734.832 538.16C726.203 532.182 727.986 532.412 722.291 524.02Z" fill="#1B75BC"/>
<path fill-rule="evenodd" clip-rule="evenodd" d="M898.191 781.594C904.749 785.905 910.789 789.296 916.715 793.09C926.092 798.838 921.49 800.964 936.447 803.321C947.032 805.045 942.603 801.424 948.356 801.827C953.015 802.229 949.736 803.781 958.135 806.655C976.43 812.863 970.792 812.403 976.717 818.151C983.506 824.876 982.815 818.84 998.693 823.899C1001.8 814.185 1017.39 798.263 1029.41 791.883C1031.77 777.858 1027.98 782.169 1037.41 773.604C1041.79 769.217 1045.79 764.467 1049.38 759.407C1056.39 760.787 1062.03 763.661 1058.81 753.659C1056.11 745.267 1054.38 746.877 1058.01 737.967C1064.45 736.416 1071.75 738.542 1070.83 730.323C1070.03 723.195 1064.45 721.988 1059.33 720.724C1047.82 717.907 1050.3 716.01 1045.18 713.596C1041.78 712.044 1033.67 710.148 1029.76 708.941L1026.36 714.229L1014.17 713.022L1013.25 703.078L1000.94 701.066L996.334 707.676C983.966 708.078 983.678 703.135 974.186 706.411C967.466 709.835 959.826 711.024 952.383 709.803C942.603 687.558 934.664 695.203 928.681 695.663C924.711 695.663 919.131 695.663 915.047 695.663C886.282 694.916 893.876 703.652 878.228 714.516C878.688 720.264 880.069 719.862 881.622 725.15C867.585 733.542 851.823 729.173 845.034 744.003C860.624 753.544 843.769 749.751 882.198 767.971C891.402 772.455 890.309 776.306 898.191 781.594Z" fill="#1B75BC"/>
<path fill-rule="evenodd" clip-rule="evenodd" d="M1135.61 663.13C1147.12 663.417 1148.61 665.659 1149.36 656.405L1152.81 660.946L1157.47 657.554C1156.49 653.933 1155.52 654.565 1153.56 651.404C1152.43 649.435 1151.69 647.27 1151.37 645.024C1162.02 642.207 1161.73 641.46 1162.88 637.552C1152.93 633.068 1139.35 646.863 1129.34 638.816C1130.84 635.023 1131.47 637.034 1135.73 633.815L1134.86 626.228C1117.6 626.228 1133.31 630.827 1096.32 627.435C1097.7 621.687 1103.05 610.192 1103.34 606.111C1103.68 600.937 1100.69 600.363 1102.42 594.615C1103.28 591.856 1105.41 588.177 1106.56 584.843C1104.37 582.47 1101.7 580.599 1098.72 579.358C1095.74 578.118 1092.53 577.538 1089.3 577.659C1091.31 568.174 1090.34 573.922 1097.07 570.071C1098.97 562.829 1099.14 565.53 1097.07 558.575C1098.04 557.483 1100.12 555.816 1100.17 555.472C1100.23 555.127 1102.93 554.092 1098.45 552.828C1092.69 551.103 1098.45 553.172 1091.43 556.104L1091.03 546.39C1084.53 545.125 1085.27 547.195 1078.6 545.01C1063.82 540.24 1061.34 548.287 1045.06 547.654C1032.12 547.195 1007.49 543.803 999.038 552.31L1000.48 563.806C1008.24 569.554 1007.61 561.449 1014.97 580.188L1001.22 601.857L1019.4 605.593C1019.4 614.388 1016.93 619.101 1018.25 623.642L1019.12 625.481C1021.53 629.849 1022.8 626.343 1022.51 633.758C1022.51 638.126 1021.24 637.782 1021.82 643.07C1028.48 647.798 1036.21 650.818 1044.31 651.864C1058.7 655.313 1058.29 652.209 1059.67 667.556C1050.58 670.947 1047.53 673.304 1044.72 686.524C1059.96 693.076 1049.26 689.8 1063.12 684.512C1089.42 674.511 1086.14 689.225 1106.04 688.421C1116.4 688.018 1117.55 690.432 1129.05 689.8L1135.38 680.086C1133.54 673.878 1132.1 677.327 1133.37 672.097C1134.4 669.187 1135.15 666.184 1135.61 663.13V663.13Z" fill="#1B75BC"/>
<path fill-rule="evenodd" clip-rule="evenodd" d="M1098.27 753.659C1106.04 752.912 1107.19 752.969 1105.81 746.474C1103.97 738.082 1103.51 745.44 1100.06 736.3C1091.25 735.103 1082.3 735.531 1073.65 737.565L1069.22 739.347C1065.08 740.554 1063.47 739.347 1059.85 741.301C1055.88 750.728 1068.19 753.257 1059.21 765.27L1051.22 762.913C1035.17 779.237 1033.04 779.18 1032.52 794.182C1021.01 798.205 1020.38 800.907 1014.11 808.149C1010.31 812.575 1000.94 820.162 1000.94 826.255C1000.94 832.348 1004.85 828.842 997.945 835.624C993.458 840.05 994.148 839.418 993.4 847.465C991.444 868.502 992.537 858.213 998.578 872.583C994.838 875.802 993.745 872.871 990.754 878.791L999.786 883.562C1005.54 881.435 999.786 881.32 1008.59 880.86C1011.49 881.15 1014.41 880.797 1017.16 879.826C1025.27 877.411 1027 878.446 1030.68 885.573C1033.56 890.919 1031.48 887.528 1037.01 890.517C1041.15 892.873 1038.62 893.161 1043.74 893.85C1049.11 894.162 1054.4 892.507 1058.64 889.195C1065.66 895.69 1063.18 889.195 1078.43 894.942C1082.86 884.424 1082.17 889.597 1080.56 877.699C1079.52 870.169 1090.05 854.305 1094.31 847.925C1098.56 841.545 1100.58 841.43 1100.06 831.083C1109.49 830.394 1106.56 830.394 1112.43 833.383C1114.15 821.887 1110.3 827.635 1116.45 820.047C1118.64 817.189 1119.75 813.655 1119.59 810.062C1119.43 806.469 1118.02 803.046 1115.59 800.39C1110.64 793.55 1108.34 798.55 1102.3 788.894C1098.74 790.446 1100.58 790.503 1096.55 790.733C1101.04 777.915 1095.63 784.468 1097.41 772.397C1098.33 765.787 1096.26 765.96 1096.95 762.798C1098.56 756.361 1099.02 764.063 1098.27 753.659Z" fill="#1B75BC"/>
<path fill-rule="evenodd" clip-rule="evenodd" d="M1242.44 514.144C1241.35 512.535 1239.39 517.363 1241.46 509.201C1242.79 504.028 1256.02 502.534 1262.35 493.567C1264.36 490.75 1263.84 489.313 1266.32 486.324C1268.79 483.336 1269.31 483.968 1271.55 481.554C1273.79 479.14 1273.91 477.415 1277.3 475.806C1280.7 474.196 1284.26 475.059 1285.82 474.139C1290.77 471.322 1284.84 471.552 1288.58 465.862C1290.48 462.93 1292.09 464.138 1295.83 464.253C1302.67 464.253 1302.85 460.114 1308.08 456.608C1312.34 453.734 1321.72 453.102 1316.02 446.894C1311.86 443.9 1307.23 441.609 1302.33 440.111C1297.32 446.377 1298.53 442.41 1292.32 445.859C1290.19 446.894 1290.65 447.584 1287.83 448.733C1283.75 450.4 1283.11 446.434 1276.67 457.872C1266.6 475.863 1269.83 460.459 1262.86 458.39C1259.24 457.93 1257.11 461.034 1252.39 462.586L1252.8 471.552C1239.45 473.334 1252.11 476.266 1237.09 483.048C1219.32 491.325 1242.84 488.796 1209.36 496.671C1203.61 498.05 1203.03 496.671 1200.85 501.844C1197.97 508.339 1200.85 506.672 1193.95 508.569C1190.38 509.603 1187.21 508.971 1190.72 516.271C1184.68 516.271 1183.47 517.765 1180.66 517.421C1176.8 516.846 1179.85 512.362 1165.47 523.916C1155.63 531.848 1169.09 535.412 1158.74 542.252C1133.71 558.863 1143.03 552.138 1144.59 559.898C1134.63 565.243 1139.81 568.117 1149.59 577.946C1154.5 583.397 1160.07 588.223 1166.16 592.316C1166.16 606.398 1170.65 605.019 1167.48 618.584C1166.62 622.205 1171.22 634.333 1181.35 630.079C1181.92 623.412 1182.96 628.413 1178.58 623.814C1180.2 622.492 1183.94 621.515 1184.34 620.078C1182.85 613.179 1180.31 606.549 1176.8 600.42C1179.39 598.798 1182.12 597.431 1184.97 596.339C1184.97 589.384 1184.51 575.877 1194.81 578.004C1201.65 579.44 1199.76 588.522 1208.96 592.316C1217.7 587.602 1209.36 587.717 1222.54 584.844C1225.47 584.311 1228.33 583.423 1231.05 582.199C1236.52 579.555 1233.87 580.13 1236.8 577.716L1250.27 571.049C1256.02 568.405 1256.54 565.301 1256.02 558.058C1267.24 552.943 1262.69 552.31 1257.34 538.171L1254.23 531.331C1258.78 523.743 1258.89 528.974 1262.35 522.536C1260.43 518.441 1256.98 515.263 1252.74 513.684C1245.61 509.718 1247.96 515.179 1242.44 514.144Z" fill="#1B75BC"/>
<path fill-rule="evenodd" clip-rule="evenodd" d="M1016.87 626.976C1014.05 622.894 1014.69 624.734 1015.43 618.411C1015.89 614.618 1016.41 611.284 1016.64 607.49C993.63 605.478 997.025 602.662 991.962 596.799C988.453 597.604 986.209 599.558 982.47 599.501C976.717 599.501 979.478 597.546 973.726 596.684C963.543 606.341 971.194 609.502 970.504 617.377C969.714 620.809 968.597 624.158 967.167 627.378C963.946 637.667 967.167 629.62 967.858 638.874C961.382 645.09 952.789 648.622 943.811 648.76C936.102 647.725 933.571 636.345 920.799 637.264L917.693 657.612C908.603 657.612 901.354 657.612 896.58 663.705C899.168 667.038 899.514 664.969 901.47 668.533C904.921 674.913 900.607 680.029 901.47 685.777L904.921 692.502C911.422 692.502 918.498 693.076 924.999 693.076C931.181 692.249 937.403 691.75 943.638 691.582C946.941 697.128 950.796 702.328 955.144 707.101C967.397 708.941 972.748 701.871 980.226 702.043C990.179 702.043 989.834 712.217 1000.19 698.02L1015.84 700.721C1019.17 711.24 1011.52 710.148 1025.56 711.297C1025.79 710.051 1026.26 708.861 1026.94 707.791C1028.38 705.434 1027.23 707.101 1028.95 705.607C1031.66 706.412 1051.45 714.803 1055.76 708.711C1059.9 692.502 1048.97 693.766 1041.72 686.179C1048.17 667.613 1046.79 671.292 1054.44 666.636C1055.3 666.159 1056.1 665.601 1056.85 664.969C1055.47 655.198 1059.21 658.014 1039.25 653.473C1032.1 652.118 1025.34 649.193 1019.46 644.909C1017.68 632.953 1022.91 635.942 1016.87 626.976Z" fill="#1B75BC"/>
<path fill-rule="evenodd" clip-rule="evenodd" d="M1347.37 519.375C1347.89 515.294 1348.93 513.282 1347.37 510.121C1344.61 511.213 1344.09 510.121 1343.46 515.064C1341.74 528.456 1349.21 517.535 1337.19 532.94L1330.29 530.411C1327.95 536.763 1327.16 543.581 1327.99 550.298C1323.04 548.114 1326.03 549.091 1322.23 544.551C1318.32 546.965 1321.43 544.551 1318.49 549.034L1316.02 542.711C1307.33 542.079 1312.17 543.573 1307.91 544.321C1300.72 545.643 1308.71 543.458 1300.89 543.056C1293.07 542.654 1295.54 546.907 1289.1 539.32C1283.34 541.562 1291.11 541.447 1283.69 542.711C1283.23 536.963 1287.95 522.594 1276.27 518.398C1269.02 515.811 1265.17 526.272 1257.11 529.893C1258.1 535.49 1260.05 540.876 1262.86 545.815C1268.33 555.472 1261.71 552.31 1264.71 558.863L1281.96 582.717L1309.35 578.865L1305.95 587.832L1313.83 592.373C1317.15 589.924 1320.17 587.087 1322.81 583.924C1331.09 576.049 1332.47 582.717 1335.47 575.474C1337.59 570.301 1335.47 573.175 1338.28 570.703C1340.93 569.336 1343.79 568.422 1346.74 568.002C1359.28 564.956 1354.79 565.99 1365.9 568.002C1368.65 568.364 1371.44 567.752 1373.78 566.271C1376.13 564.79 1377.88 562.535 1378.73 559.897C1381.55 552.08 1378.09 549.206 1377.86 545.643C1377.9 545.395 1377.9 545.143 1377.86 544.895C1373.72 546.505 1376.37 545.413 1372.86 548.632C1369.52 547.424 1360.66 545.24 1358.88 544.263C1357.04 537.596 1361.58 537.94 1360.2 528.514C1355.72 525.238 1358.36 529.204 1354.45 523.686C1351.29 519.547 1353.53 519.662 1347.37 519.375Z" fill="#1B75BC"/>
<path fill-rule="evenodd" clip-rule="evenodd" d="M1287.77 630.309C1299.28 628.47 1294.45 630.309 1298.13 623.239C1308.08 623.239 1303.31 621.86 1310.1 618.181C1318.95 616.112 1337.31 629.102 1340.13 629.677V628.297C1341.33 624.101 1341.68 624.906 1345.88 625.193V635.54C1348.72 635.237 1351.33 633.859 1353.18 631.688L1357.44 627.148C1357.44 626.745 1357.84 626.688 1358.07 626.458C1365.73 629.849 1362.04 626.458 1368.72 624.331C1368.72 620.48 1367.74 623.526 1365.9 618.066C1371.08 614.732 1370.85 613.755 1374.47 609.214C1379.82 602.259 1380.22 609.214 1380.86 599.96C1374.64 596.626 1364.17 597.603 1357.84 594.959C1352.49 592.833 1355.54 590.648 1350.88 588.349C1347.14 587.347 1343.25 586.959 1339.38 587.2L1335.35 581.107C1325 583.521 1320.85 590.476 1315.33 596.454L1302.67 589.499L1305.09 582.199C1299.18 582.664 1293.3 583.489 1287.49 584.671C1280.93 586.165 1269.65 596.856 1264.88 601.914C1261.71 605.306 1264.19 603.581 1259.13 605.823C1243.76 612.375 1260.28 616.456 1269.6 617.319C1268.85 629.619 1267.7 624.159 1272.99 632.263C1277.71 631.918 1282.77 631.171 1287.77 630.309Z" fill="#1B75BC"/>
<path fill-rule="evenodd" clip-rule="evenodd" d="M631.43 537.825C629.244 533.457 630.855 533.112 629.187 530.008C626.253 524.26 621.42 528.341 617.681 520.352C614.632 513.857 618.832 517.938 612.331 514.604C605.657 511.227 599.926 506.25 595.648 500.119C590.24 486.899 590.527 495.463 584.775 489.658C582.518 484.734 580.597 479.665 579.022 474.483C573.269 463.562 555.55 475.403 553.249 480.231C559.002 486.324 561.13 480.979 564.755 490.348C559.922 488.968 554.86 485.979 550.257 487.129C548.359 496.958 554.86 497.647 555.147 504.373C555.435 511.098 549.395 508.683 549.395 520.639C565.33 529.721 570.68 542.539 585.868 537.883C597.373 534.549 601.228 537.078 611.64 537.883C617.393 538.285 613.712 533.974 620.097 537.883C629.704 544.148 618.544 544.838 636.263 545.068C634.81 542.552 633.196 540.133 631.43 537.825V537.825Z" fill="#1B75BC"/>
<path fill-rule="evenodd" clip-rule="evenodd" d="M1412.96 596.799C1419.98 597.144 1416.47 598.178 1419.98 592.43C1423.48 586.682 1419.98 591.913 1424.35 587.832L1426.19 585.878L1426.76 585.245C1433.09 578.98 1441.61 582.084 1444.94 577.543C1444.94 576.681 1446.73 571.795 1436.89 574.037C1420.9 577.601 1436.2 573.635 1408.12 571.738C1404.56 565.99 1409.04 567.829 1401.28 561.277C1399.78 560.012 1401.28 561.564 1399.38 559.437C1397.48 557.311 1399.09 557.943 1396.22 556.276C1385.11 549.781 1379.53 564.496 1379.47 564.553C1371.59 578.176 1358.3 562.829 1338.69 573.75C1337.65 580.13 1337.54 579.498 1340.87 584.671H1352.72C1356.92 594.844 1365.73 593.695 1383.73 596.626L1383.1 606.685C1387.64 608.352 1390.87 611.456 1395.99 613.353C1398.17 602.259 1396.33 606.915 1395.07 603.926C1393.17 599.328 1397.25 602.892 1391.9 594.844C1400.36 594.5 1394.09 594.212 1397.94 596.971C1401.56 600.38 1406.26 602.414 1411.23 602.719C1412.04 601.282 1411.23 602.719 1412.27 600.075C1412.5 599.903 1412.9 597.086 1412.96 596.799Z" fill="#1B75BC"/>
<path fill-rule="evenodd" clip-rule="evenodd" d="M1156.9 589.327C1150.68 584.441 1138.95 574.612 1137.28 566.68C1135.09 556.219 1136.47 561.967 1133.42 556.563C1127.67 558.69 1127.96 556.966 1125.49 561.737C1129 565.013 1131.24 563.404 1131.93 567.772C1132.62 572.14 1130.03 571.738 1131.93 579.268C1132.38 581.179 1133.18 582.991 1134.29 584.613C1140.56 594.327 1132.1 587.947 1137.11 595.822C1123.76 599.213 1119.04 590.649 1109.09 586.74C1102.65 599.903 1106.33 594.442 1105.93 606.283C1105.93 610.709 1101.09 619.561 1100.17 624.964C1119.45 627.493 1122.03 623.182 1137.22 622.837C1138.83 637.724 1137.8 630.999 1146.71 632.378C1155.63 633.758 1144.36 629.849 1168.69 629.792C1165.93 624.044 1163.51 626.63 1164.09 620.48C1165.12 608.984 1168.17 623.124 1163.17 596.626C1162.25 592.43 1159.54 591.338 1156.9 589.327Z" fill="#1B75BC"/>
<circle cx="1291" cy="606" r="20" fill="#B5DEFF" fill-opacity="0.5"/>
<circle cx="1291" cy="606" r="12.1951" fill="#148FF2"/>
<circle cx="402" cy="291" r="17" fill="#B5DEFF" fill-opacity="0.5"/>
<circle cx="402" cy="291" r="10.3659" fill="white"/>
<circle cx="579.5" cy="511.5" r="16.5" fill="#B5DEFF" fill-opacity="0.5"/>
<circle cx="579.5" cy="511.5" r="10.061" fill="white"/>
<circle cx="941.5" cy="622.5" r="16.5" fill="#B5DEFF" fill-opacity="0.5"/>
<circle cx="941.5" cy="622.5" r="10.061" fill="white"/>
<circle cx="825.5" cy="642.5" r="16.5" fill="#B5DEFF" fill-opacity="0.5"/>
<circle cx="825.5" cy="642.5" r="10.061" fill="white"/>
<circle cx="947.5" cy="749.5" r="16.5" fill="#B5DEFF" fill-opacity="0.5"/>
<circle cx="947.5" cy="749.5" r="10.061" fill="white"/>
<circle cx="1058.5" cy="874.5" r="16.5" fill="#B5DEFF" fill-opacity="0.5"/>
<circle cx="1058.5" cy="874.5" r="10.061" fill="white"/>
<circle cx="1007.5" cy="675.5" r="16.5" fill="#B5DEFF" fill-opacity="0.5"/>
<circle cx="1007.5" cy="675.5" r="10.061" fill="white"/>
<circle cx="1070.5" cy="638.5" r="16.5" fill="#B5DEFF" fill-opacity="0.5"/>
<circle cx="1070.5" cy="638.5" r="10.061" fill="white"/>
<circle cx="1140.5" cy="609.5" r="16.5" fill="#B5DEFF" fill-opacity="0.5"/>
<circle cx="1140.5" cy="609.5" r="10.061" fill="white"/>
<circle cx="1311" cy="562" r="16" fill="#B5DEFF" fill-opacity="0.5"/>
<circle cx="1311" cy="562" r="9.7561" fill="white"/>
<circle cx="1391.5" cy="577.5" r="16.5" fill="#B5DEFF" fill-opacity="0.5"/>
<circle cx="1391.5" cy="577.5" r="10.061" fill="white"/>
<circle cx="1197.5" cy="526.5" r="16.5" fill="#B5DEFF" fill-opacity="0.5"/>
<circle cx="1197.5" cy="526.5" r="10.061" fill="white"/>
<path d="M1312 561.5C1303 568.5 1292.92 590 1292.92 609.536" stroke="#148FF2" stroke-width="6" stroke-linecap="round"/>
<path d="M1292.5 605C1292.5 585 1257 518.5 1198 527" stroke="#148FF2" stroke-width="6" stroke-linecap="round"/>
<path d="M1291.5 604.501C1275 584.5 1182 573.5 1141 608.501" stroke="#148FF2" stroke-width="6" stroke-linecap="round"/>
<path d="M1289 605.5C1280.5 581.5 1139.5 519 1071 637.657" stroke="#148FF2" stroke-width="6" stroke-linecap="round"/>
<path d="M1291 603.5C1282.5 579.5 1103.5 478.5 1007.27 674.395" stroke="#148FF2" stroke-width="6" stroke-linecap="round"/>
<path d="M1293.5 599.5C1287.5 451.5 1036 436 941.931 621.961" stroke="#148FF2" stroke-width="6" stroke-linecap="round"/>
<path d="M1296.5 601.5C1307.5 448.5 1004.5 346.5 826.831 642.836" stroke="#148FF2" stroke-width="6" stroke-linecap="round"/>
<path d="M1295 598.5C1318 397.5 763.5 254 580.486 511.322" stroke="#148FF2" stroke-width="6" stroke-linecap="round"/>
<path d="M1290.5 601.501C1345.5 324 625.047 34.9707 403 290" stroke="#148FF2" stroke-width="6" stroke-linecap="round"/>
<path d="M1291.5 608C1276.5 662.5 1197.07 742.539 949 750" stroke="#148FF2" stroke-width="6" stroke-linecap="round"/>
<path d="M1391 578C1364.5 572 1324.5 564 1293.5 605" stroke="#148FF2" stroke-width="6" stroke-linecap="round"/>
<g clip-path="url(#clip2_3_1685)">
<path d="M1273.64 602.761C1271.58 601.764 1270.74 599.273 1271.77 597.229C1272.77 595.241 1275.17 594.416 1277.19 595.371L1283.18 598.221C1283.65 598.444 1283.89 598.556 1284.13 598.592C1284.35 598.624 1284.57 598.612 1284.78 598.559C1285.02 598.498 1285.24 598.363 1285.69 598.093L1296.52 591.512C1296.98 591.235 1297.21 591.096 1297.45 591.036C1297.67 590.982 1297.9 590.973 1298.12 591.01C1298.37 591.051 1298.61 591.171 1299.08 591.411L1299.86 591.8C1301.12 592.437 1301.75 592.755 1302 593.212C1302.21 593.612 1302.25 594.083 1302.11 594.514C1301.95 595.007 1301.38 595.43 1300.25 596.275L1291.84 602.543L1298.81 606.055C1299.23 606.265 1299.43 606.37 1299.65 606.413C1299.85 606.452 1300.05 606.456 1300.24 606.424C1300.46 606.389 1300.67 606.292 1301.1 606.098L1303.59 604.954C1304.02 604.76 1304.23 604.663 1304.45 604.628C1304.64 604.596 1304.84 604.6 1305.04 604.639C1305.26 604.682 1305.46 604.787 1305.88 604.997L1306.29 605.204C1307.28 605.701 1307.77 605.949 1308.01 606.326C1308.23 606.656 1308.32 607.051 1308.26 607.441C1308.2 607.885 1307.86 608.32 1307.18 609.189L1304.31 612.864C1304.19 613.019 1304.13 613.097 1304.07 613.18C1304.03 613.255 1303.99 613.332 1303.96 613.413C1303.92 613.504 1303.89 613.599 1303.84 613.789L1302.6 618.286C1302.31 619.351 1302.16 619.883 1301.84 620.195C1301.56 620.469 1301.19 620.633 1300.79 620.659C1300.35 620.687 1299.85 620.439 1298.87 619.942L1298.46 619.735C1298.04 619.525 1297.83 619.42 1297.67 619.271C1297.52 619.138 1297.4 618.98 1297.31 618.805C1297.21 618.606 1297.16 618.378 1297.06 617.922L1296.49 615.237C1296.4 614.781 1296.35 614.553 1296.25 614.354C1296.16 614.179 1296.03 614.021 1295.89 613.888C1295.72 613.739 1295.51 613.634 1295.1 613.424L1288.13 609.912L1288.09 620.4C1288.09 621.814 1288.09 622.522 1287.79 622.947C1287.53 623.318 1287.13 623.565 1286.68 623.63C1286.16 623.705 1285.53 623.386 1284.27 622.75L1283.49 622.361C1283.02 622.121 1282.78 622 1282.6 621.825C1282.44 621.669 1282.31 621.482 1282.22 621.276C1282.13 621.043 1282.1 620.777 1282.05 620.245L1280.89 607.666C1280.84 607.144 1280.82 606.882 1280.73 606.653C1280.63 606.432 1280.5 606.234 1280.32 606.071C1280.14 605.903 1279.9 605.788 1279.43 605.56L1273.64 602.761Z" fill="#0046BD" stroke="white" stroke-linecap="round" stroke-linejoin="round"/>
</g>
</g>
</g>
<defs>
<clipPath id="clip0_3_1685">
<rect width="1714" height="1024" fill="white"/>
</clipPath>
<clipPath id="clip1_3_1685">
<rect width="1176" height="767" fill="white" transform="translate(269 128)"/>
</clipPath>
<clipPath id="clip2_3_1685">
<rect width="39.6045" height="39.6045" fill="white" transform="translate(1278.41 632.022) rotate(-108.267)"/>
</clipPath>
</defs>
</svg>
